<svg xmlns="http://www.w3.org/2000/svg" xmlns:xlink="http://www.w3.org/1999/xlink" width="500" zoomAndPan="magnify" viewBox="0 0 375 374.999991" height="500" preserveAspectRatio="xMidYMid meet" version="1.0"><defs><g/><clipPath id="2aeab1c447"><path d="M 0.359375 7 L 37 7 L 37 45 L 0.359375 45 Z M 0.359375 7 " clip-rule="nonzero"/></clipPath><clipPath id="ec6043668e"><path d="M 68 7 L 102.359375 7 L 102.359375 45 L 68 45 Z M 68 7 " clip-rule="nonzero"/></clipPath><clipPath id="40575ae517"><rect x="0" width="103" y="0" height="53"/></clipPath><clipPath id="1cd1fdd6ea"><path d="M 152 158 L 191 158 L 191 200 L 152 200 Z M 152 158 " clip-rule="nonzero"/></clipPath><clipPath id="74c34c9192"><path d="M 167.722656 158.351562 L 190.269531 170.265625 L 174.851562 199.441406 L 152.304688 187.527344 Z M 167.722656 158.351562 " clip-rule="nonzero"/></clipPath><clipPath id="e8c436a18d"><path d="M 13 4 L 29 4 L 29 41.679688 L 13 41.679688 Z M 13 4 " clip-rule="nonzero"/></clipPath><clipPath id="40b61e14c2"><path d="M 15.722656 0.351562 L 38.269531 12.265625 L 22.851562 41.441406 L 0.304688 29.527344 Z M 15.722656 0.351562 " clip-rule="nonzero"/></clipPath><clipPath id="27dfc12307"><path d="M 38.28125 12.269531 L 15.734375 0.355469 L 0.316406 29.53125 L 22.863281 41.445312 Z M 38.28125 12.269531 " clip-rule="nonzero"/></clipPath><clipPath id="28035e8b6c"><rect x="0" width="39" y="0" height="42"/></clipPath><clipPath id="2626f2ebc0"><path d="M 137 163 L 153 163 L 153 199 L 137 199 Z M 137 163 " clip-rule="nonzero"/></clipPath><clipPath id="74a0aecb3e"><path d="M 128.625 169.5 L 150.539062 159.714844 L 163.382812 188.476562 L 141.46875 198.265625 Z M 128.625 169.5 " clip-rule="nonzero"/></clipPath><clipPath id="713d308e33"><path d="M 128.625 169.5 L 150.539062 159.714844 L 163.382812 188.476562 L 141.46875 198.265625 Z M 128.625 169.5 " clip-rule="nonzero"/></clipPath></defs><g transform="matrix(1, 0, 0, 1, 105, 156)"><g clip-path="url(#40575ae517)"><g clip-path="url(#2aeab1c447)"><g fill="#000000" fill-opacity="1"><g transform="translate(1.309326, 42.052287)"><g><path d="M 35.28125 -15.796875 C 35.28125 -15.214844 35.289062 -14.324219 35.304688 -13.132812 C 35.324219 -11.933594 35.347656 -10.605469 35.382812 -9.148438 C 35.417969 -7.691406 35.460938 -6.300781 35.515625 -4.96875 C 35.566406 -3.613281 35.601562 -2.492188 35.621094 -1.609375 L 35.644531 -0.300781 C 35.644531 0.175781 35.539062 0.589844 35.328125 0.945312 C 35.132812 1.265625 34.875 1.515625 34.550781 1.699219 C 34.234375 1.875 33.894531 1.960938 33.527344 1.960938 L 22.648438 1.960938 C 21.949219 1.960938 21.386719 1.695312 20.960938 1.160156 C 20.636719 0.757812 20.476562 0.285156 20.476562 -0.261719 L 20.476562 -0.308594 C 20.511719 -1.734375 20.503906 -3.132812 20.453125 -4.503906 C 20.398438 -5.941406 20.371094 -7.472656 20.371094 -9.101562 C 20.371094 -8.898438 20.4375 -8.695312 20.5625 -8.492188 C 20.710938 -8.257812 20.90625 -8.089844 21.144531 -7.992188 C 21.296875 -7.929688 21.464844 -7.898438 21.652344 -7.894531 C 21.976562 -7.886719 22.28125 -7.972656 22.5625 -8.144531 C 22.808594 -8.300781 23 -8.5 23.136719 -8.742188 C 23.199219 -8.859375 23.242188 -8.972656 23.265625 -9.082031 L 21.339844 -9.46875 L 23.273438 -9.125 C 22.960938 -7.367188 22.703125 -5.78125 22.496094 -4.371094 C 22.285156 -2.917969 22.035156 -1.414062 21.753906 0.140625 L 21.742188 0.203125 L 21.726562 0.265625 C 21.621094 0.6875 21.421875 1.042969 21.132812 1.335938 C 20.714844 1.753906 20.207031 1.960938 19.613281 1.960938 L 14.699219 1.960938 C 14.394531 1.960938 14.105469 1.902344 13.832031 1.78125 C 13.503906 1.632812 13.226562 1.414062 13.011719 1.125 C 12.722656 0.742188 12.578125 0.296875 12.578125 -0.210938 L 14.539062 -0.210938 L 12.625 0.210938 C 12.289062 -1.3125 12.066406 -2.890625 11.957031 -4.523438 C 11.859375 -5.960938 11.660156 -7.371094 11.367188 -8.742188 C 11.367188 -8.753906 11.363281 -8.757812 11.363281 -8.761719 C 11.367188 -8.753906 11.371094 -8.742188 11.375 -8.730469 C 11.40625 -8.652344 11.457031 -8.570312 11.519531 -8.492188 C 11.785156 -8.15625 12.132812 -7.980469 12.570312 -7.953125 C 12.839844 -7.9375 13.097656 -7.992188 13.351562 -8.117188 C 13.628906 -8.253906 13.851562 -8.449219 14.011719 -8.703125 C 14.101562 -8.847656 14.160156 -8.988281 14.1875 -9.132812 C 14.195312 -9.160156 14.199219 -9.183594 14.199219 -9.207031 L 12.238281 -9.207031 L 14.199219 -9.257812 C 14.238281 -7.902344 14.191406 -6.355469 14.066406 -4.617188 C 13.945312 -2.992188 13.886719 -1.539062 13.886719 -0.261719 C 13.886719 0.1875 13.78125 0.589844 13.570312 0.945312 C 13.375 1.265625 13.117188 1.515625 12.789062 1.699219 C 12.472656 1.875 12.132812 1.960938 11.769531 1.960938 L 1.570312 1.960938 C 0.871094 1.960938 0.308594 1.695312 -0.121094 1.160156 C -0.441406 0.757812 -0.601562 0.285156 -0.601562 -0.261719 L -0.601562 -0.652344 C -0.53125 -2.382812 -0.480469 -4.351562 -0.445312 -6.570312 L -0.367188 -13.359375 L -0.339844 -19.832031 C -0.339844 -21.839844 -0.347656 -23.53125 -0.367188 -24.898438 L -0.390625 -27.441406 C -0.390625 -28.277344 -0.402344 -29.105469 -0.417969 -29.929688 C -0.4375 -30.78125 -0.445312 -31.648438 -0.445312 -32.535156 L -0.445312 -32.636719 C -0.445312 -33.183594 -0.285156 -33.660156 0.0390625 -34.058594 C 0.464844 -34.59375 1.027344 -34.863281 1.726562 -34.863281 L 16.003906 -34.863281 C 16.371094 -34.863281 16.710938 -34.769531 17.027344 -34.589844 C 17.277344 -34.445312 17.492188 -34.257812 17.667969 -34.023438 C 17.851562 -33.777344 17.984375 -33.492188 18.066406 -33.167969 L 18.09375 -33.046875 L 18.109375 -32.929688 C 18.289062 -31.449219 18.414062 -29.957031 18.488281 -28.441406 C 18.550781 -27.085938 18.710938 -25.816406 18.96875 -24.632812 L 18.980469 -24.585938 L 18.988281 -24.539062 C 18.945312 -24.777344 18.847656 -24.992188 18.683594 -25.191406 C 18.511719 -25.402344 18.304688 -25.554688 18.0625 -25.640625 C 17.878906 -25.710938 17.660156 -25.710938 17.414062 -25.648438 L 17.886719 -23.746094 L 17.160156 -25.566406 C 17.214844 -25.589844 17.253906 -25.605469 17.289062 -25.621094 C 17.296875 -25.625 17.300781 -25.628906 17.300781 -25.628906 C 17.292969 -25.625 17.285156 -25.617188 17.273438 -25.613281 C 16.945312 -25.417969 16.710938 -25.15625 16.558594 -24.828125 C 16.519531 -24.746094 16.492188 -24.667969 16.476562 -24.605469 C 16.488281 -24.640625 16.496094 -24.734375 16.507812 -24.878906 L 18.464844 -24.742188 L 16.503906 -24.742188 C 16.503906 -25.066406 16.539062 -25.742188 16.613281 -26.761719 C 16.683594 -27.761719 16.78125 -28.839844 16.90625 -29.996094 C 17.03125 -31.144531 17.144531 -32.128906 17.25 -32.945312 L 17.265625 -33.058594 L 17.292969 -33.167969 C 17.398438 -33.585938 17.597656 -33.945312 17.886719 -34.234375 C 18.304688 -34.652344 18.8125 -34.863281 19.40625 -34.863281 L 33.421875 -34.863281 C 34.121094 -34.863281 34.683594 -34.59375 35.113281 -34.058594 C 35.433594 -33.660156 35.59375 -33.183594 35.59375 -32.636719 C 35.59375 -29.824219 35.542969 -27 35.4375 -24.171875 C 35.332031 -21.386719 35.28125 -18.597656 35.28125 -15.796875 Z M 31.355469 -15.796875 C 31.355469 -18.644531 31.410156 -21.484375 31.515625 -24.316406 C 31.617188 -27.097656 31.671875 -29.875 31.671875 -32.636719 C 31.671875 -32.265625 31.796875 -31.925781 32.046875 -31.609375 C 32.40625 -31.164062 32.863281 -30.9375 33.421875 -30.9375 L 19.40625 -30.9375 C 19.894531 -30.9375 20.3125 -31.113281 20.660156 -31.460938 C 20.882812 -31.683594 21.027344 -31.933594 21.097656 -32.214844 L 19.195312 -32.691406 L 21.140625 -32.4375 C 21.039062 -31.648438 20.925781 -30.695312 20.804688 -29.578125 C 20.6875 -28.46875 20.59375 -27.4375 20.523438 -26.484375 C 20.457031 -25.554688 20.425781 -24.972656 20.425781 -24.742188 L 20.425781 -24.671875 L 20.421875 -24.601562 C 20.394531 -24.257812 20.359375 -23.972656 20.304688 -23.738281 C 20.152344 -23.058594 19.8125 -22.5625 19.289062 -22.246094 C 19.113281 -22.140625 18.886719 -22.035156 18.617188 -21.925781 L 18.492188 -21.875 L 18.363281 -21.84375 C 17.835938 -21.710938 17.289062 -21.75 16.722656 -21.957031 C 16.285156 -22.113281 15.925781 -22.367188 15.640625 -22.71875 C 15.367188 -23.058594 15.191406 -23.449219 15.117188 -23.894531 L 17.050781 -24.21875 L 15.132812 -23.804688 C 14.832031 -25.199219 14.644531 -26.683594 14.570312 -28.257812 C 14.5 -29.671875 14.382812 -31.070312 14.214844 -32.453125 L 16.164062 -32.691406 L 14.257812 -32.214844 C 14.304688 -32.027344 14.394531 -31.847656 14.527344 -31.671875 C 14.675781 -31.472656 14.863281 -31.308594 15.082031 -31.183594 C 15.367188 -31.019531 15.675781 -30.9375 16.003906 -30.9375 L 1.726562 -30.9375 C 2.285156 -30.9375 2.742188 -31.164062 3.101562 -31.609375 C 3.351562 -31.925781 3.476562 -32.265625 3.476562 -32.636719 L 3.476562 -32.535156 C 3.476562 -31.675781 3.488281 -30.835938 3.503906 -30.011719 C 3.523438 -29.160156 3.53125 -28.316406 3.53125 -27.480469 L 3.558594 -24.949219 C 3.574219 -23.5625 3.582031 -21.851562 3.582031 -19.816406 L 3.558594 -13.316406 L 3.476562 -6.507812 C 3.441406 -4.261719 3.390625 -2.257812 3.320312 -0.496094 L 1.359375 -0.574219 L 3.320312 -0.574219 L 3.320312 -0.261719 C 3.320312 -0.632812 3.195312 -0.976562 2.945312 -1.289062 C 2.585938 -1.738281 2.128906 -1.960938 1.570312 -1.960938 L 11.769531 -1.960938 C 11.457031 -1.960938 11.160156 -1.882812 10.882812 -1.730469 C 10.597656 -1.570312 10.371094 -1.351562 10.203125 -1.074219 C 10.042969 -0.808594 9.964844 -0.535156 9.964844 -0.261719 C 9.964844 -1.632812 10.027344 -3.179688 10.152344 -4.902344 C 10.269531 -6.511719 10.3125 -7.929688 10.277344 -9.152344 L 10.277344 -9.207031 C 10.277344 -9.828125 10.414062 -10.355469 10.691406 -10.792969 C 10.925781 -11.167969 11.238281 -11.449219 11.625 -11.640625 C 11.992188 -11.816406 12.382812 -11.894531 12.800781 -11.871094 C 13.53125 -11.828125 14.128906 -11.511719 14.59375 -10.929688 C 14.882812 -10.5625 15.085938 -10.109375 15.203125 -9.5625 C 15.535156 -8.007812 15.757812 -6.417969 15.871094 -4.789062 C 15.96875 -3.351562 16.164062 -1.964844 16.457031 -0.628906 L 16.503906 -0.421875 L 16.503906 -0.210938 C 16.503906 -0.574219 16.382812 -0.914062 16.148438 -1.230469 C 15.957031 -1.484375 15.71875 -1.675781 15.425781 -1.804688 C 15.191406 -1.910156 14.949219 -1.960938 14.699219 -1.960938 L 19.613281 -1.960938 C 19.125 -1.960938 18.707031 -1.789062 18.359375 -1.4375 C 18.136719 -1.21875 17.992188 -0.964844 17.921875 -0.683594 L 19.824219 -0.210938 L 17.894531 -0.558594 C 18.167969 -2.070312 18.410156 -3.53125 18.613281 -4.9375 C 18.828125 -6.386719 19.089844 -8.011719 19.410156 -9.808594 L 19.414062 -9.832031 L 19.417969 -9.851562 C 19.5625 -10.582031 19.921875 -11.125 20.496094 -11.480469 C 21.15625 -11.890625 21.871094 -11.9375 22.636719 -11.621094 C 23.171875 -11.402344 23.585938 -11.054688 23.882812 -10.585938 C 24.160156 -10.148438 24.296875 -9.652344 24.296875 -9.101562 C 24.296875 -7.519531 24.320312 -6.039062 24.375 -4.648438 C 24.425781 -3.199219 24.4375 -1.71875 24.398438 -0.214844 L 22.4375 -0.261719 L 24.402344 -0.261719 C 24.402344 -0.632812 24.273438 -0.976562 24.023438 -1.289062 C 23.664062 -1.738281 23.207031 -1.960938 22.648438 -1.960938 L 33.527344 -1.960938 C 33.214844 -1.960938 32.921875 -1.882812 32.644531 -1.730469 C 32.355469 -1.570312 32.128906 -1.351562 31.964844 -1.074219 C 31.804688 -0.808594 31.722656 -0.523438 31.722656 -0.222656 L 31.699219 -1.53125 C 31.679688 -2.390625 31.644531 -3.484375 31.59375 -4.8125 C 31.542969 -6.167969 31.496094 -7.578125 31.460938 -9.054688 C 31.425781 -10.523438 31.402344 -11.863281 31.382812 -13.074219 C 31.367188 -14.285156 31.355469 -15.195312 31.355469 -15.796875 Z M 31.355469 -15.796875 "/></g></g></g></g><g fill="#000000" fill-opacity="1"><g transform="translate(36.45802, 42.052287)"><g><path d="M 31.59375 1.960938 L 14.539062 1.960938 C 13.84375 1.960938 13.28125 1.695312 12.851562 1.160156 C 12.53125 0.757812 12.371094 0.285156 12.371094 -0.261719 L 12.371094 -0.363281 C 12.410156 -1.054688 12.480469 -1.976562 12.585938 -3.136719 C 12.691406 -4.277344 12.808594 -5.429688 12.929688 -6.589844 L 13.257812 -9.609375 L 13.414062 -9.925781 C 13.691406 -10.480469 14.140625 -10.859375 14.757812 -11.066406 C 15.0625 -11.167969 15.355469 -11.21875 15.640625 -11.21875 L 16.101562 -11.21875 L 16.515625 -11.011719 C 16.324219 -11.109375 16.15625 -11.160156 16.011719 -11.171875 C 16.0625 -11.167969 16.148438 -11.167969 16.265625 -11.167969 L 18.046875 -11.167969 L 18.046875 -9.207031 L 17.210938 -10.980469 L 17.65625 -11.191406 C 17.445312 -11.089844 17.277344 -10.933594 17.148438 -10.71875 C 17.03125 -10.53125 16.972656 -10.339844 16.972656 -10.148438 L 18.933594 -10.148438 L 17.011719 -9.761719 C 16.96875 -9.972656 16.882812 -10.523438 16.757812 -11.414062 L 16.339844 -14.34375 C 16.179688 -15.453125 16.039062 -16.523438 15.914062 -17.546875 C 15.789062 -18.589844 15.707031 -19.375 15.671875 -19.894531 L 15.667969 -19.917969 L 15.667969 -19.945312 C 15.640625 -20.53125 15.570312 -20.996094 15.453125 -21.347656 L 15.453125 -21.359375 C 15.484375 -21.296875 15.535156 -21.234375 15.597656 -21.167969 C 15.851562 -20.917969 16.160156 -20.792969 16.527344 -20.792969 L 16.457031 -20.792969 L 16.390625 -20.796875 C 16.605469 -20.78125 16.816406 -20.84375 17.023438 -20.988281 C 17.1875 -21.101562 17.292969 -21.222656 17.34375 -21.351562 C 17.207031 -20.992188 17.128906 -20.75 17.113281 -20.625 C 17.003906 -19.820312 16.824219 -18.707031 16.578125 -17.289062 C 16.332031 -15.886719 16.050781 -14.34375 15.738281 -12.664062 C 15.425781 -11 15.132812 -9.339844 14.855469 -7.679688 C 14.578125 -6.023438 14.34375 -4.515625 14.15625 -3.15625 C 13.972656 -1.835938 13.863281 -0.839844 13.832031 -0.167969 L 11.875 -0.261719 L 13.835938 -0.261719 C 13.835938 0.1875 13.730469 0.589844 13.515625 0.945312 C 13.324219 1.265625 13.0625 1.515625 12.738281 1.699219 C 12.421875 1.875 12.082031 1.960938 11.714844 1.960938 L 1.152344 1.960938 C 0.78125 1.960938 0.441406 1.875 0.125 1.703125 C -0.261719 1.492188 -0.550781 1.191406 -0.746094 0.796875 C -0.964844 0.367188 -1.027344 -0.113281 -0.941406 -0.636719 L -0.929688 -0.714844 L -0.910156 -0.789062 C -0.894531 -0.84375 -0.886719 -0.90625 -0.878906 -0.976562 C -0.851562 -1.21875 -0.808594 -1.453125 -0.753906 -1.679688 L 1.152344 -1.203125 L -0.765625 -1.628906 C -0.695312 -1.929688 -0.558594 -2.589844 -0.351562 -3.609375 L 0.351562 -7.085938 L 1.109375 -10.824219 C 1.363281 -12.066406 1.582031 -13.035156 1.765625 -13.734375 L 3.660156 -13.234375 L 1.722656 -13.53125 C 1.792969 -14 1.929688 -14.78125 2.121094 -15.878906 C 2.3125 -16.949219 2.519531 -18.183594 2.746094 -19.585938 L 3.453125 -23.929688 C 3.695312 -25.402344 3.910156 -26.796875 4.101562 -28.109375 C 4.292969 -29.441406 4.460938 -30.550781 4.601562 -31.429688 C 4.722656 -32.199219 4.785156 -32.621094 4.785156 -32.691406 L 4.785156 -32.933594 L 4.84375 -33.167969 C 4.949219 -33.585938 5.148438 -33.945312 5.4375 -34.234375 C 5.855469 -34.652344 6.363281 -34.863281 6.957031 -34.863281 L 25.996094 -34.863281 C 26.359375 -34.863281 26.703125 -34.769531 27.019531 -34.589844 C 27.269531 -34.445312 27.480469 -34.257812 27.65625 -34.023438 C 27.839844 -33.777344 27.972656 -33.492188 28.054688 -33.167969 L 28.066406 -33.121094 L 28.074219 -33.074219 C 28.148438 -32.710938 28.28125 -31.972656 28.476562 -30.859375 L 29.105469 -27.160156 L 29.761719 -23.261719 C 29.964844 -22.042969 30.136719 -21.097656 30.273438 -20.417969 L 30.28125 -20.371094 C 30.527344 -18.960938 30.757812 -17.550781 30.96875 -16.140625 L 31.597656 -11.953125 L 29.65625 -11.664062 L 31.558594 -12.140625 C 31.644531 -11.804688 31.75 -11.214844 31.882812 -10.371094 C 32 -9.609375 32.15625 -8.742188 32.339844 -7.773438 C 32.535156 -6.765625 32.722656 -5.75 32.898438 -4.726562 C 33.066406 -3.742188 33.226562 -2.894531 33.378906 -2.1875 C 33.546875 -1.414062 33.648438 -0.878906 33.691406 -0.589844 L 31.75 -0.3125 L 33.609375 -0.933594 C 33.816406 -0.316406 33.785156 0.261719 33.515625 0.796875 C 33.296875 1.234375 32.96875 1.554688 32.523438 1.761719 C 32.234375 1.894531 31.921875 1.960938 31.59375 1.960938 Z M 31.59375 -1.960938 C 31.347656 -1.960938 31.109375 -1.90625 30.878906 -1.800781 C 30.488281 -1.621094 30.199219 -1.339844 30.007812 -0.957031 C 29.792969 -0.523438 29.753906 -0.101562 29.886719 0.304688 L 29.832031 0.136719 L 29.808594 -0.0351562 C 29.777344 -0.234375 29.691406 -0.679688 29.542969 -1.367188 C 29.382812 -2.125 29.210938 -3.023438 29.03125 -4.058594 C 28.859375 -5.058594 28.679688 -6.046875 28.488281 -7.03125 C 28.292969 -8.046875 28.132812 -8.960938 28.007812 -9.765625 C 27.894531 -10.492188 27.808594 -10.96875 27.753906 -11.1875 L 27.730469 -11.28125 L 27.089844 -15.558594 C 26.882812 -16.9375 26.660156 -18.316406 26.417969 -19.695312 L 28.347656 -20.03125 L 26.425781 -19.648438 C 26.28125 -20.363281 26.105469 -21.351562 25.890625 -22.609375 L 25.238281 -26.503906 L 24.613281 -30.183594 C 24.421875 -31.265625 24.296875 -31.972656 24.230469 -32.304688 L 26.152344 -32.691406 L 24.25 -32.214844 C 24.296875 -32.027344 24.386719 -31.847656 24.519531 -31.671875 C 24.667969 -31.472656 24.851562 -31.308594 25.070312 -31.183594 C 25.359375 -31.019531 25.664062 -30.9375 25.996094 -30.9375 L 6.957031 -30.9375 C 7.445312 -30.9375 7.863281 -31.113281 8.210938 -31.460938 C 8.433594 -31.683594 8.578125 -31.933594 8.648438 -32.214844 L 6.746094 -32.691406 L 8.707031 -32.691406 C 8.707031 -32.414062 8.632812 -31.785156 8.476562 -30.8125 C 8.335938 -29.949219 8.171875 -28.859375 7.984375 -27.546875 C 7.789062 -26.207031 7.570312 -24.792969 7.324219 -23.300781 L 6.617188 -18.964844 C 6.390625 -17.539062 6.179688 -16.285156 5.984375 -15.191406 C 5.796875 -14.125 5.667969 -13.375 5.601562 -12.933594 L 5.585938 -12.832031 L 5.558594 -12.734375 C 5.394531 -12.109375 5.191406 -11.210938 4.957031 -10.046875 L 4.199219 -6.304688 L 3.492188 -2.824219 C 3.28125 -1.785156 3.136719 -1.101562 3.066406 -0.777344 L 3.058594 -0.753906 L 3.054688 -0.726562 C 3.039062 -0.671875 3.03125 -0.609375 3.023438 -0.542969 C 2.996094 -0.296875 2.953125 -0.0625 2.898438 0.160156 L 0.992188 -0.3125 L 2.929688 0.0078125 C 2.980469 -0.304688 2.925781 -0.628906 2.761719 -0.957031 C 2.589844 -1.296875 2.335938 -1.558594 2 -1.742188 C 1.734375 -1.886719 1.449219 -1.960938 1.152344 -1.960938 L 11.714844 -1.960938 C 11.402344 -1.960938 11.109375 -1.882812 10.832031 -1.730469 C 10.546875 -1.570312 10.320312 -1.351562 10.152344 -1.074219 C 9.992188 -0.808594 9.910156 -0.535156 9.910156 -0.261719 L 9.910156 -0.308594 L 9.914062 -0.355469 C 9.953125 -1.144531 10.070312 -2.261719 10.269531 -3.695312 C 10.464844 -5.089844 10.703125 -6.632812 10.984375 -8.324219 C 11.265625 -10.011719 11.5625 -11.699219 11.878906 -13.386719 C 12.191406 -15.050781 12.46875 -16.578125 12.714844 -17.964844 C 12.953125 -19.335938 13.121094 -20.386719 13.222656 -21.113281 C 13.277344 -21.546875 13.425781 -22.089844 13.675781 -22.742188 C 13.914062 -23.375 14.285156 -23.867188 14.789062 -24.214844 C 15.339844 -24.59375 15.964844 -24.757812 16.667969 -24.710938 L 16.527344 -22.753906 L 16.527344 -24.714844 C 17.246094 -24.714844 17.859375 -24.457031 18.375 -23.945312 C 18.722656 -23.59375 18.988281 -23.144531 19.175781 -22.589844 C 19.40625 -21.894531 19.542969 -21.070312 19.585938 -20.121094 L 17.625 -20.03125 L 19.582031 -20.171875 C 19.617188 -19.714844 19.691406 -19 19.808594 -18.019531 C 19.929688 -17.023438 20.066406 -15.980469 20.222656 -14.898438 L 20.640625 -11.96875 C 20.757812 -11.148438 20.832031 -10.671875 20.859375 -10.53125 L 20.894531 -10.339844 L 20.894531 -10.148438 C 20.894531 -9.605469 20.765625 -9.121094 20.5 -8.683594 C 20.222656 -8.226562 19.828125 -7.878906 19.324219 -7.640625 L 18.484375 -7.246094 L 16.265625 -7.246094 C 15.609375 -7.246094 15.109375 -7.332031 14.761719 -7.503906 L 15.640625 -9.257812 L 15.640625 -7.296875 C 15.78125 -7.296875 15.902344 -7.3125 16 -7.34375 C 16.40625 -7.480469 16.714844 -7.757812 16.921875 -8.171875 L 15.167969 -9.046875 L 17.117188 -8.839844 L 16.832031 -6.175781 C 16.710938 -5.03125 16.597656 -3.898438 16.492188 -2.773438 C 16.390625 -1.667969 16.324219 -0.796875 16.289062 -0.160156 L 14.332031 -0.261719 L 16.292969 -0.261719 C 16.292969 -0.632812 16.167969 -0.976562 15.914062 -1.289062 C 15.558594 -1.738281 15.101562 -1.960938 14.539062 -1.960938 Z M 31.59375 -1.960938 "/></g></g></g><g clip-path="url(#ec6043668e)"><g fill="#000000" fill-opacity="1"><g transform="translate(69.357612, 42.052287)"><g><path d="M 32.664062 -32.429688 L 32.664062 -32.167969 C 32.664062 -31.203125 32.648438 -30.246094 32.609375 -29.296875 C 32.578125 -28.394531 32.558594 -27.503906 32.558594 -26.625 C 32.558594 -26.335938 32.570312 -25.976562 32.585938 -25.546875 C 32.601562 -25.101562 32.617188 -24.707031 32.636719 -24.367188 L 32.664062 -23.796875 L 32.664062 -22.019531 C 32.664062 -21.441406 32.492188 -20.945312 32.144531 -20.53125 C 31.710938 -20.007812 31.140625 -19.746094 30.441406 -19.746094 C 28.566406 -19.746094 26.871094 -19.816406 25.363281 -19.964844 C 23.953125 -20.097656 22.828125 -20.183594 21.996094 -20.21875 C 21.21875 -20.25 20.363281 -20.242188 19.429688 -20.191406 C 19.105469 -20.175781 18.855469 -20.140625 18.683594 -20.082031 C 18.660156 -20.074219 18.644531 -20.070312 18.628906 -20.0625 L 18.632812 -20.066406 C 18.675781 -20.089844 18.71875 -20.128906 18.765625 -20.179688 L 18.695312 -20.101562 L 18.617188 -20.03125 C 18.691406 -20.097656 18.746094 -20.175781 18.78125 -20.265625 C 18.792969 -20.292969 18.800781 -20.320312 18.804688 -20.339844 C 18.804688 -20.339844 18.804688 -20.332031 18.804688 -20.320312 C 18.804688 -19.921875 18.8125 -19.671875 18.828125 -19.570312 L 18.835938 -19.535156 L 18.839844 -19.503906 C 18.851562 -19.417969 18.863281 -19.359375 18.875 -19.320312 C 18.863281 -19.347656 18.84375 -19.390625 18.804688 -19.445312 C 18.59375 -19.753906 18.292969 -19.921875 17.902344 -19.949219 C 18.414062 -19.910156 19.074219 -19.835938 19.878906 -19.726562 L 19.613281 -17.785156 L 19.777344 -19.738281 C 20.152344 -19.707031 20.800781 -19.683594 21.714844 -19.667969 C 22.652344 -19.648438 23.695312 -19.648438 24.84375 -19.667969 L 28.109375 -19.71875 C 29.082031 -19.734375 29.796875 -19.761719 30.25 -19.792969 L 30.390625 -17.835938 L 30.066406 -19.769531 C 30.761719 -19.886719 31.367188 -19.730469 31.878906 -19.304688 C 32.402344 -18.867188 32.664062 -18.292969 32.664062 -17.574219 L 32.664062 -16.605469 C 32.664062 -15.949219 32.65625 -15.183594 32.636719 -14.316406 C 32.621094 -13.492188 32.621094 -12.757812 32.636719 -12.105469 L 32.664062 -10.953125 L 32.664062 -9.886719 C 32.664062 -9.257812 32.453125 -8.730469 32.023438 -8.300781 C 31.597656 -7.875 31.070312 -7.664062 30.441406 -7.664062 L 30.441406 -9.625 L 30.660156 -7.675781 C 30.273438 -7.632812 29.5625 -7.609375 28.53125 -7.609375 C 27.582031 -7.609375 26.511719 -7.601562 25.316406 -7.585938 C 24.15625 -7.566406 23.058594 -7.515625 22.019531 -7.433594 C 21.074219 -7.355469 20.371094 -7.25 19.90625 -7.113281 C 19.1875 -6.914062 18.625 -6.78125 18.21875 -6.71875 C 18.390625 -6.746094 18.527344 -6.828125 18.636719 -6.960938 C 18.648438 -6.976562 18.65625 -6.988281 18.664062 -6.996094 C 18.660156 -6.996094 18.660156 -6.988281 18.652344 -6.980469 C 18.628906 -6.941406 18.601562 -6.882812 18.570312 -6.8125 C 18.488281 -6.621094 18.394531 -6.363281 18.292969 -6.046875 C 18.113281 -5.4375 18.097656 -4.738281 18.246094 -3.949219 C 18.46875 -2.773438 18.621094 -1.601562 18.695312 -0.441406 L 18.699219 -0.378906 L 18.699219 -0.3125 C 18.699219 0.332031 18.480469 0.875 18.046875 1.308594 C 17.609375 1.742188 17.070312 1.960938 16.425781 1.960938 L 1.777344 1.960938 C 1.132812 1.960938 0.589844 1.742188 0.15625 1.308594 C -0.28125 0.875 -0.496094 0.332031 -0.496094 -0.3125 L -0.496094 -0.34375 L -0.46875 -1.285156 C -0.453125 -1.875 -0.445312 -2.597656 -0.445312 -3.453125 L -0.445312 -5.960938 C -0.445312 -6.699219 -0.457031 -7.210938 -0.488281 -7.492188 L -0.496094 -7.589844 L -0.496094 -12.65625 C -0.496094 -12.878906 -0.488281 -13.515625 -0.46875 -14.574219 C -0.453125 -15.609375 -0.445312 -16.84375 -0.445312 -18.28125 L -0.445312 -26.546875 C -0.445312 -27.578125 -0.457031 -28.238281 -0.488281 -28.519531 L -0.496094 -28.617188 L -0.496094 -32.585938 C -0.496094 -33.234375 -0.28125 -33.773438 0.15625 -34.207031 C 0.589844 -34.644531 1.132812 -34.863281 1.777344 -34.863281 L 30.441406 -34.863281 C 31.140625 -34.863281 31.710938 -34.601562 32.144531 -34.078125 C 32.492188 -33.660156 32.664062 -33.164062 32.664062 -32.585938 Z M 28.742188 -32.429688 L 28.742188 -32.585938 C 28.742188 -32.21875 28.871094 -31.878906 29.132812 -31.566406 C 29.480469 -31.148438 29.917969 -30.9375 30.441406 -30.9375 L 1.777344 -30.9375 C 2.214844 -30.9375 2.597656 -31.105469 2.929688 -31.433594 C 3.261719 -31.765625 3.425781 -32.148438 3.425781 -32.585938 L 3.425781 -28.714844 L 1.464844 -28.714844 L 3.417969 -28.910156 C 3.457031 -28.496094 3.476562 -27.707031 3.476562 -26.546875 L 3.476562 -18.28125 C 3.476562 -16.824219 3.46875 -15.566406 3.453125 -14.507812 C 3.433594 -13.472656 3.425781 -12.855469 3.425781 -12.65625 L 3.425781 -7.6875 L 1.464844 -7.6875 L 3.417969 -7.882812 C 3.457031 -7.46875 3.476562 -6.828125 3.476562 -5.960938 L 3.476562 -3.453125 C 3.476562 -2.5625 3.46875 -1.800781 3.453125 -1.171875 L 3.425781 -0.257812 L 1.464844 -0.3125 L 3.425781 -0.3125 C 3.425781 -0.75 3.261719 -1.136719 2.929688 -1.464844 C 2.597656 -1.796875 2.214844 -1.960938 1.777344 -1.960938 L 16.425781 -1.960938 C 15.988281 -1.960938 15.601562 -1.796875 15.273438 -1.464844 C 14.941406 -1.136719 14.777344 -0.75 14.777344 -0.3125 L 16.738281 -0.3125 L 14.78125 -0.1875 C 14.714844 -1.1875 14.585938 -2.195312 14.390625 -3.214844 C 14.125 -4.625 14.179688 -5.964844 14.554688 -7.238281 C 14.871094 -8.234375 15.210938 -8.960938 15.570312 -9.410156 C 16.097656 -10.070312 16.777344 -10.460938 17.609375 -10.59375 C 17.867188 -10.632812 18.261719 -10.730469 18.800781 -10.878906 C 19.523438 -11.089844 20.492188 -11.246094 21.707031 -11.34375 C 22.828125 -11.433594 24.015625 -11.488281 25.261719 -11.507812 C 26.472656 -11.523438 27.5625 -11.535156 28.53125 -11.535156 C 29.417969 -11.535156 29.984375 -11.546875 30.226562 -11.574219 L 30.332031 -11.585938 L 30.441406 -11.585938 C 29.988281 -11.585938 29.589844 -11.417969 29.25 -11.078125 C 28.910156 -10.738281 28.742188 -10.339844 28.742188 -9.886719 L 28.742188 -10.933594 L 30.703125 -10.933594 L 28.742188 -10.886719 L 28.714844 -12.007812 C 28.699219 -12.714844 28.699219 -13.511719 28.714844 -14.398438 C 28.734375 -15.238281 28.742188 -15.976562 28.742188 -16.605469 L 28.742188 -17.574219 C 28.742188 -17.402344 28.773438 -17.230469 28.832031 -17.054688 C 28.941406 -16.753906 29.117188 -16.5 29.367188 -16.289062 C 29.777344 -15.949219 30.226562 -15.820312 30.710938 -15.902344 L 30.621094 -15.886719 L 30.527344 -15.878906 C 30.003906 -15.84375 29.21875 -15.8125 28.171875 -15.796875 L 24.902344 -15.742188 C 23.710938 -15.726562 22.625 -15.726562 21.644531 -15.742188 C 20.644531 -15.761719 19.914062 -15.789062 19.453125 -15.828125 L 19.402344 -15.832031 L 19.347656 -15.839844 C 18.621094 -15.9375 18.042969 -16.003906 17.613281 -16.035156 C 16.75 -16.101562 16.070312 -16.496094 15.574219 -17.222656 C 15.25 -17.691406 15.042969 -18.28125 14.949219 -18.996094 L 16.894531 -19.25 L 14.960938 -18.925781 C 14.90625 -19.242188 14.878906 -19.707031 14.878906 -20.320312 C 14.878906 -21.414062 15.257812 -22.292969 16.011719 -22.964844 L 17.3125 -21.496094 L 15.863281 -22.816406 C 16.570312 -23.597656 17.691406 -24.03125 19.222656 -24.109375 C 20.277344 -24.164062 21.253906 -24.175781 22.152344 -24.136719 C 23.058594 -24.101562 24.253906 -24.011719 25.738281 -23.867188 C 27.125 -23.734375 28.691406 -23.667969 30.441406 -23.667969 C 29.917969 -23.667969 29.480469 -23.460938 29.132812 -23.039062 C 28.871094 -22.730469 28.742188 -22.390625 28.742188 -22.019531 L 28.742188 -23.746094 L 30.703125 -23.746094 L 28.742188 -23.648438 L 28.71875 -24.171875 C 28.699219 -24.527344 28.683594 -24.9375 28.664062 -25.398438 C 28.644531 -25.875 28.636719 -26.285156 28.636719 -26.625 C 28.636719 -27.554688 28.65625 -28.496094 28.691406 -29.445312 C 28.726562 -30.34375 28.742188 -31.25 28.742188 -32.167969 Z M 28.742188 -32.429688 "/></g></g></g></g><g fill="#ffffff" fill-opacity="1"><g transform="translate(1.309326, 42.052287)"><g><path d="M 33.328125 -15.796875 C 33.328125 -15.203125 33.332031 -14.300781 33.34375 -13.09375 C 33.363281 -11.894531 33.390625 -10.5625 33.421875 -9.09375 C 33.460938 -7.632812 33.507812 -6.234375 33.5625 -4.890625 C 33.613281 -3.546875 33.644531 -2.4375 33.65625 -1.5625 C 33.675781 -0.695312 33.6875 -0.265625 33.6875 -0.265625 C 33.6875 -0.0859375 33.632812 0 33.53125 0 L 22.65625 0 C 22.507812 0 22.4375 -0.0859375 22.4375 -0.265625 C 22.476562 -1.722656 22.472656 -3.160156 22.421875 -4.578125 C 22.367188 -5.992188 22.34375 -7.503906 22.34375 -9.109375 C 22.34375 -9.453125 22.191406 -9.679688 21.890625 -9.796875 C 21.597656 -9.921875 21.414062 -9.8125 21.34375 -9.46875 C 21.03125 -7.6875 20.769531 -6.082031 20.5625 -4.65625 C 20.351562 -3.226562 20.109375 -1.742188 19.828125 -0.203125 C 19.796875 -0.0664062 19.726562 0 19.625 0 L 14.703125 0 C 14.597656 0 14.546875 -0.0664062 14.546875 -0.203125 C 14.234375 -1.640625 14.023438 -3.125 13.921875 -4.65625 C 13.816406 -6.1875 13.601562 -7.6875 13.28125 -9.15625 C 13.175781 -9.644531 12.972656 -9.894531 12.671875 -9.90625 C 12.378906 -9.925781 12.234375 -9.691406 12.234375 -9.203125 C 12.273438 -7.910156 12.234375 -6.425781 12.109375 -4.75 C 11.984375 -3.082031 11.921875 -1.585938 11.921875 -0.265625 C 11.921875 -0.0859375 11.867188 0 11.765625 0 L 1.5625 0 C 1.425781 0 1.359375 -0.0859375 1.359375 -0.265625 L 1.359375 -0.578125 C 1.429688 -2.316406 1.484375 -4.300781 1.515625 -6.53125 C 1.546875 -8.769531 1.570312 -11.039062 1.59375 -13.34375 C 1.613281 -15.644531 1.625 -17.804688 1.625 -19.828125 C 1.625 -21.847656 1.613281 -23.546875 1.59375 -24.921875 C 1.570312 -26.304688 1.5625 -27.15625 1.5625 -27.46875 C 1.5625 -28.300781 1.550781 -29.132812 1.53125 -29.96875 C 1.519531 -30.8125 1.515625 -31.664062 1.515625 -32.53125 C 1.515625 -32.570312 1.515625 -32.609375 1.515625 -32.640625 C 1.515625 -32.816406 1.582031 -32.90625 1.71875 -32.90625 L 16 -32.90625 C 16.070312 -32.90625 16.128906 -32.835938 16.171875 -32.703125 C 16.335938 -31.265625 16.457031 -29.8125 16.53125 -28.34375 C 16.601562 -26.882812 16.773438 -25.507812 17.046875 -24.21875 C 17.085938 -24.007812 17.203125 -23.867188 17.390625 -23.796875 C 17.585938 -23.734375 17.753906 -23.71875 17.890625 -23.75 C 18.066406 -23.820312 18.195312 -23.882812 18.28125 -23.9375 C 18.363281 -23.988281 18.425781 -24.257812 18.46875 -24.75 C 18.46875 -25.019531 18.5 -25.644531 18.5625 -26.625 C 18.632812 -27.601562 18.734375 -28.660156 18.859375 -29.796875 C 18.984375 -30.929688 19.097656 -31.898438 19.203125 -32.703125 C 19.234375 -32.835938 19.300781 -32.90625 19.40625 -32.90625 L 33.421875 -32.90625 C 33.566406 -32.90625 33.640625 -32.816406 33.640625 -32.640625 C 33.640625 -29.847656 33.585938 -27.046875 33.484375 -24.234375 C 33.378906 -21.429688 33.328125 -18.617188 33.328125 -15.796875 Z M 33.328125 -15.796875 "/></g></g></g><g fill="#ffffff" fill-opacity="1"><g transform="translate(36.45802, 42.052287)"><g><path d="M 31.59375 0 L 14.546875 0 C 14.398438 0 14.328125 -0.0859375 14.328125 -0.265625 C 14.367188 -0.921875 14.441406 -1.816406 14.546875 -2.953125 C 14.648438 -4.085938 14.757812 -5.226562 14.875 -6.375 C 15 -7.53125 15.097656 -8.421875 15.171875 -9.046875 C 15.203125 -9.117188 15.269531 -9.171875 15.375 -9.203125 C 15.476562 -9.242188 15.566406 -9.265625 15.640625 -9.265625 C 15.710938 -9.222656 15.921875 -9.203125 16.265625 -9.203125 C 16.617188 -9.203125 16.976562 -9.203125 17.34375 -9.203125 C 17.707031 -9.203125 17.941406 -9.203125 18.046875 -9.203125 C 18.046875 -9.203125 18.191406 -9.269531 18.484375 -9.40625 C 18.785156 -9.550781 18.9375 -9.800781 18.9375 -10.15625 C 18.90625 -10.320312 18.828125 -10.832031 18.703125 -11.6875 C 18.578125 -12.539062 18.4375 -13.515625 18.28125 -14.609375 C 18.125 -15.710938 17.984375 -16.769531 17.859375 -17.78125 C 17.742188 -18.789062 17.664062 -19.539062 17.625 -20.03125 C 17.59375 -20.800781 17.488281 -21.445312 17.3125 -21.96875 C 17.132812 -22.488281 16.875 -22.75 16.53125 -22.75 C 16.039062 -22.789062 15.695312 -22.554688 15.5 -22.046875 C 15.3125 -21.546875 15.203125 -21.15625 15.171875 -20.875 C 15.066406 -20.101562 14.890625 -19.019531 14.640625 -17.625 C 14.398438 -16.226562 14.125 -14.691406 13.8125 -13.015625 C 13.5 -11.347656 13.203125 -9.675781 12.921875 -8 C 12.640625 -6.332031 12.398438 -4.804688 12.203125 -3.421875 C 12.015625 -2.046875 11.90625 -0.992188 11.875 -0.265625 C 11.875 -0.0859375 11.820312 0 11.71875 0 L 1.15625 0 C 1.007812 0 0.957031 -0.101562 1 -0.3125 C 1.03125 -0.445312 1.050781 -0.59375 1.0625 -0.75 C 1.082031 -0.914062 1.113281 -1.066406 1.15625 -1.203125 C 1.21875 -1.515625 1.351562 -2.1875 1.5625 -3.21875 C 1.78125 -4.25 2.019531 -5.40625 2.28125 -6.6875 C 2.539062 -7.976562 2.789062 -9.222656 3.03125 -10.421875 C 3.28125 -11.628906 3.488281 -12.566406 3.65625 -13.234375 C 3.726562 -13.691406 3.859375 -14.457031 4.046875 -15.53125 C 4.242188 -16.613281 4.453125 -17.859375 4.671875 -19.265625 C 4.898438 -20.679688 5.132812 -22.128906 5.375 -23.609375 C 5.625 -25.097656 5.84375 -26.503906 6.03125 -27.828125 C 6.226562 -29.148438 6.394531 -30.25 6.53125 -31.125 C 6.675781 -32 6.75 -32.523438 6.75 -32.703125 C 6.78125 -32.835938 6.847656 -32.90625 6.953125 -32.90625 L 26 -32.90625 C 26.070312 -32.90625 26.125 -32.835938 26.15625 -32.703125 C 26.226562 -32.347656 26.359375 -31.617188 26.546875 -30.515625 C 26.742188 -29.421875 26.953125 -28.191406 27.171875 -26.828125 C 27.398438 -25.472656 27.617188 -24.175781 27.828125 -22.9375 C 28.035156 -21.695312 28.210938 -20.726562 28.359375 -20.03125 C 28.597656 -18.632812 28.820312 -17.238281 29.03125 -15.84375 C 29.238281 -14.457031 29.445312 -13.066406 29.65625 -11.671875 C 29.726562 -11.390625 29.820312 -10.851562 29.9375 -10.0625 C 30.0625 -9.28125 30.21875 -8.390625 30.40625 -7.390625 C 30.601562 -6.398438 30.789062 -5.398438 30.96875 -4.390625 C 31.144531 -3.378906 31.3125 -2.507812 31.46875 -1.78125 C 31.625 -1.050781 31.71875 -0.5625 31.75 -0.3125 C 31.820312 -0.101562 31.769531 0 31.59375 0 Z M 31.59375 0 "/></g></g></g><g fill="#ffffff" fill-opacity="1"><g transform="translate(69.357612, 42.052287)"><g><path d="M 30.703125 -32.4375 C 30.703125 -32.394531 30.703125 -32.375 30.703125 -32.375 C 30.703125 -32.3125 30.703125 -32.242188 30.703125 -32.171875 C 30.703125 -31.234375 30.6875 -30.300781 30.65625 -29.375 C 30.625 -28.445312 30.609375 -27.53125 30.609375 -26.625 C 30.609375 -26.3125 30.613281 -25.925781 30.625 -25.46875 C 30.644531 -25.019531 30.660156 -24.617188 30.671875 -24.265625 C 30.691406 -23.921875 30.703125 -23.75 30.703125 -23.75 L 30.703125 -22.03125 C 30.703125 -21.8125 30.617188 -21.703125 30.453125 -21.703125 C 28.628906 -21.703125 26.992188 -21.769531 25.546875 -21.90625 C 24.109375 -22.050781 22.953125 -22.144531 22.078125 -22.1875 C 21.242188 -22.21875 20.328125 -22.207031 19.328125 -22.15625 C 18.335938 -22.101562 17.664062 -21.882812 17.3125 -21.5 C 17 -21.21875 16.84375 -20.820312 16.84375 -20.3125 C 16.84375 -19.8125 16.859375 -19.457031 16.890625 -19.25 C 16.992188 -18.445312 17.28125 -18.023438 17.75 -17.984375 C 18.226562 -17.953125 18.851562 -17.882812 19.625 -17.78125 C 20.039062 -17.75 20.726562 -17.722656 21.6875 -17.703125 C 22.644531 -17.691406 23.707031 -17.691406 24.875 -17.703125 C 26.039062 -17.722656 27.128906 -17.738281 28.140625 -17.75 C 29.148438 -17.769531 29.898438 -17.800781 30.390625 -17.84375 C 30.597656 -17.875 30.703125 -17.785156 30.703125 -17.578125 C 30.703125 -17.578125 30.703125 -17.253906 30.703125 -16.609375 C 30.703125 -15.960938 30.691406 -15.210938 30.671875 -14.359375 C 30.660156 -13.503906 30.660156 -12.734375 30.671875 -12.046875 C 30.691406 -11.367188 30.703125 -11 30.703125 -10.9375 C 30.703125 -10.9375 30.703125 -10.757812 30.703125 -10.40625 C 30.703125 -10.0625 30.703125 -9.890625 30.703125 -9.890625 C 30.703125 -9.710938 30.617188 -9.625 30.453125 -9.625 C 30.128906 -9.59375 29.488281 -9.578125 28.53125 -9.578125 C 27.570312 -9.578125 26.488281 -9.566406 25.28125 -9.546875 C 24.082031 -9.523438 22.941406 -9.472656 21.859375 -9.390625 C 20.785156 -9.304688 19.953125 -9.175781 19.359375 -9 C 18.722656 -8.820312 18.238281 -8.707031 17.90625 -8.65625 C 17.582031 -8.601562 17.316406 -8.445312 17.109375 -8.1875 C 16.898438 -7.925781 16.671875 -7.410156 16.421875 -6.640625 C 16.140625 -5.703125 16.101562 -4.679688 16.3125 -3.578125 C 16.53125 -2.484375 16.671875 -1.394531 16.734375 -0.3125 C 16.734375 -0.101562 16.628906 0 16.421875 0 L 1.78125 0 C 1.570312 0 1.46875 -0.101562 1.46875 -0.3125 C 1.46875 -0.3125 1.472656 -0.613281 1.484375 -1.21875 C 1.503906 -1.832031 1.515625 -2.578125 1.515625 -3.453125 C 1.515625 -4.328125 1.515625 -5.164062 1.515625 -5.96875 C 1.515625 -6.769531 1.5 -7.34375 1.46875 -7.6875 C 1.46875 -7.6875 1.46875 -7.9375 1.46875 -8.4375 C 1.46875 -8.945312 1.46875 -9.53125 1.46875 -10.1875 C 1.46875 -10.851562 1.46875 -11.429688 1.46875 -11.921875 C 1.46875 -12.410156 1.46875 -12.65625 1.46875 -12.65625 C 1.46875 -12.863281 1.472656 -13.488281 1.484375 -14.53125 C 1.503906 -15.582031 1.515625 -16.832031 1.515625 -18.28125 C 1.515625 -19.726562 1.515625 -21.191406 1.515625 -22.671875 C 1.515625 -24.160156 1.515625 -25.453125 1.515625 -26.546875 C 1.515625 -27.648438 1.5 -28.375 1.46875 -28.71875 L 1.46875 -32.59375 C 1.46875 -32.800781 1.570312 -32.90625 1.78125 -32.90625 L 30.453125 -32.90625 C 30.617188 -32.90625 30.703125 -32.800781 30.703125 -32.59375 Z M 30.703125 -32.4375 "/></g></g></g></g></g><g clip-path="url(#1cd1fdd6ea)"><g clip-path="url(#74c34c9192)"><g transform="matrix(1, 0, 0, 1, 152, 158)"><g clip-path="url(#28035e8b6c)"><g clip-path="url(#e8c436a18d)"><g clip-path="url(#40b61e14c2)"><g clip-path="url(#27dfc12307)"><path fill="#000000" d="M 25.941406 5.753906 L 28.480469 24.714844 L 22.703125 23.761719 L 22.851562 41.464844 L 13.820312 16.96875 L 19.285156 17.816406 L 13.792969 4.007812 Z M 25.941406 5.753906 " fill-opacity="1" fill-rule="nonzero"/></g></g></g></g></g></g></g><g clip-path="url(#2626f2ebc0)"><g clip-path="url(#74a0aecb3e)"><g clip-path="url(#713d308e33)"><path fill="#000000" d="M 140.761719 164.082031 L 137.15625 181.949219 L 142.707031 181.402344 L 141.449219 198.222656 L 151.578125 175.507812 L 146.332031 175.96875 L 152.421875 163.1875 Z M 140.761719 164.082031 " fill-opacity="1" fill-rule="nonzero"/></g></g></g></svg>